<?xml version="1.0" standalone="no"?><!DOCTYPE svg PUBLIC "-//W3C//DTD SVG 1.1//EN" "http://www.w3.org/Graphics/SVG/1.1/DTD/svg11.dtd"><svg t="1683250511432" class="icon" viewBox="0 0 1024 1024" version="1.1" xmlns="http://www.w3.org/2000/svg" p-id="4921" xmlns:xlink="http://www.w3.org/1999/xlink" width="200" height="200"><path d="M565.7 901.3h28.5L593.8 32h-28.5l0.4 869.3z m0 0" fill="#FEC50D" p-id="4922"></path><path d="M595.2 265.3C722.6 406 823.5 562.6 858.3 758.8l-385.8 0.2c87.3-39.2 195-223.3 122.7-493.7z m0 0" fill="#44C0D9" p-id="4923"></path><path d="M617.9 472c2.4 0.3 5.2 0.5 8.4 0.6-3.3 1.2-6.2 2.4-8.6 3.6 0-1.4 0.1-2.7 0.2-4.2z m-2.5 28.9c1 1.1 2 2.3 3.2 3.6-1.2-0.6-2.3-1.1-3.4-1.6l0.2-2z m0 0" fill="#FFA142" p-id="4924"></path><path d="M565.3 32C366.5 247.5 193.1 477.8 165.7 793.6l600.6-0.3C630.3 739.4 453 404.8 565.3 32z m0 0" fill="#005B7D" p-id="4925"></path><path d="M382.3 914.6c0.1 0.3 0.2 0.4 0.3 0.7-0.1-0.3-0.2-0.5-0.3-0.7z m-3.7 53.7c-0.2 0.2-0.3 0.4-0.5 0.6 0.2-0.2 0.4-0.4 0.5-0.6z m1.2-97.6z m5.4 3.1c1.5 1 2.8 1.9 4.3 2.9-1.4-1-2.8-1.9-4.3-2.9z m27 101.1c-0.8 1.5-1.7 2.9-2.6 4.4 0.9-1.5 1.8-2.9 2.6-4.4z m-43.9 2.5c-0.2 0.2-0.5 0.3-0.7 0.4 0.2-0.2 0.4-0.3 0.7-0.4z m41.4-78.8c0.9 1.5 1.8 2.9 2.5 4.4-0.8-1.5-1.7-2.9-2.5-4.4zM376 971.1z m33 9.2c-0.9 1.5-1.9 2.8-2.8 4.2 0.9-1.3 1.9-2.7 2.8-4.2z m0 0" fill="#FB7569" p-id="4926"></path><path d="M843.9 693.1c-16 6.3-33 9.5-50.2 9.5-75.9 0-137.4-61.5-137.5-137.3 0-53.8 30.9-100.5 76-123 48.8 76.6 87.6 159.3 111.7 250.8z" fill="#005B7D" p-id="4927"></path><path d="M414.2 208.5L530 294.2c3.2 118.3 31.7 224.8 71.6 309.3l-302.9-224c34.1-59.6 73.2-116.2 115.5-171zM248.1 478.8c-18 40.3-33.7 81.9-46.5 125.2l256.3 189.5 215.7-0.1-425.5-314.6z" fill="#44C0D9" p-id="4928"></path><path d="M801.8 992H319c-147.1-48.5-153.3-167-153.3-167h691.6v111.6c-0.1 30.6-24.9 55.4-55.5 55.4z" fill="#FEC50D" p-id="4929"></path><path d="M330.3 896.1m-31.6 0a31.6 31.6 0 1 0 63.2 0 31.6 31.6 0 1 0-63.2 0Z" fill="#FEC50D" p-id="4930"></path><path d="M330.3 933.8c-20.8 0-37.7-16.9-37.7-37.7s16.9-37.7 37.7-37.7 37.7 16.9 37.7 37.7-16.9 37.7-37.7 37.7z m0-63.1c-14 0-25.4 11.4-25.4 25.4s11.4 25.4 25.4 25.4 25.4-11.4 25.4-25.4-11.4-25.4-25.4-25.4z" fill="#FFFFFF" p-id="4931"></path></svg>