<?xml version="1.0" standalone="no"?><!DOCTYPE svg PUBLIC "-//W3C//DTD SVG 1.1//EN" "http://www.w3.org/Graphics/SVG/1.1/DTD/svg11.dtd"><svg t="1683211814596" class="icon" viewBox="0 0 1024 1024" version="1.1" xmlns="http://www.w3.org/2000/svg" p-id="13173" xmlns:xlink="http://www.w3.org/1999/xlink" width="200" height="200"><path d="M322.133333 759.466667H204.8c-89.6 0-162.133333-74.666667-162.133333-164.266667 0-70.4 44.8-132.266667 108.8-155.733333 0-8.533333-2.133333-19.2-2.133334-27.733334 0-74.666667 59.733333-136.533333 134.4-136.533333 32 0 61.866667 10.666667 85.333334 32 34.133333-87.466667 115.2-142.933333 206.933333-142.933333 91.733333 0 172.8 55.466667 206.933333 142.933333 2.133333 6.4 0 10.666667-6.4 12.8-6.4 2.133333-10.666667 0-12.8-6.4-29.866667-78.933333-104.533333-130.133333-187.733333-130.133333-87.466667 0-164.266667 57.6-192 145.066666-2.133333 4.266667-4.266667 6.4-8.533333 6.4s-8.533333 0-10.666667-2.133333c-21.333333-23.466667-51.2-36.266667-81.066667-36.266667-61.866667 0-113.066667 51.2-113.066666 115.2 0 10.666667 2.133333 19.2 4.266666 32v8.533334c-2.133333 2.133333-4.266667 4.266667-6.4 4.266666C106.666667 473.6 64 531.2 64 595.2c0 78.933333 64 142.933333 140.8 142.933333h117.333333c6.4 0 10.666667 4.266667 10.666667 10.666667s-4.266667 10.666667-10.666667 10.666667z" fill="#108EE9" p-id="13174"></path><path d="M593.066667 759.466667h-53.333334c-6.4 0-10.666667-4.266667-10.666666-10.666667s4.266667-10.666667 10.666666-10.666667h53.333334c6.4 0 10.666667 4.266667 10.666666 10.666667s-4.266667 10.666667-10.666666 10.666667z" fill="#ED1E79" p-id="13175"></path><path d="M949.333333 868.266667H452.266667c-17.066667 0-32-14.933333-32-32v-194.133334c0-6.4 4.266667-10.666667 10.666666-10.666666h539.733334c6.4 0 10.666667 4.266667 10.666666 10.666666v194.133334c0 17.066667-14.933333 32-32 32zM441.6 652.8v183.466667c0 6.4 4.266667 10.666667 10.666667 10.666666h497.066666c6.4 0 10.666667-4.266667 10.666667-10.666666v-183.466667H441.6z" fill="#108EE9" p-id="13176"></path><path d="M593.066667 544h-53.333334c-6.4 0-10.666667-4.266667-10.666666-10.666667s4.266667-10.666667 10.666666-10.666666h53.333334c6.4 0 10.666667 4.266667 10.666666 10.666666s-4.266667 10.666667-10.666666 10.666667z" fill="#ED1E79" p-id="13177"></path><path d="M970.666667 652.8H430.933333c-6.4 0-10.666667-4.266667-10.666666-10.666667V448c0-17.066667 14.933333-32 32-32h497.066666c17.066667 0 32 14.933333 32 32v194.133333c0 6.4-4.266667 10.666667-10.666666 10.666667z m-529.066667-21.333333H960V448c0-6.4-4.266667-10.666667-10.666667-10.666667H452.266667c-6.4 0-10.666667 4.266667-10.666667 10.666667v183.466667z" fill="#108EE9" p-id="13178"></path></svg>